<mxfile host="65bd71144e">
    <diagram name="3" id="6hzkewQ1XdMmEXmOElve">
        <mxGraphModel dx="1167" dy="624" grid="1" gridSize="10" guides="1" tooltips="1" connect="1" arrows="1" fold="1" page="1" pageScale="1" pageWidth="850" pageHeight="1100" math="0" shadow="0">
            <root>
                <mxCell id="0"/>
                <mxCell id="1" parent="0"/>
                <mxCell id="t0RmRPI1sTO2w_LkU9PK-3" value="" style="edgeStyle=orthogonalEdgeStyle;rounded=0;orthogonalLoop=1;jettySize=auto;html=1;" parent="1" source="t0RmRPI1sTO2w_LkU9PK-1" target="t0RmRPI1sTO2w_LkU9PK-2" edge="1">
                    <mxGeometry relative="1" as="geometry"/>
                </mxCell>
                <mxCell id="t0RmRPI1sTO2w_LkU9PK-1" value="START" style="ellipse;whiteSpace=wrap;html=1;aspect=fixed;" parent="1" vertex="1">
                    <mxGeometry x="320" y="30" width="80" height="80" as="geometry"/>
                </mxCell>
                <mxCell id="t0RmRPI1sTO2w_LkU9PK-6" value="" style="edgeStyle=orthogonalEdgeStyle;rounded=0;orthogonalLoop=1;jettySize=auto;html=1;" parent="1" source="t0RmRPI1sTO2w_LkU9PK-2" target="t0RmRPI1sTO2w_LkU9PK-5" edge="1">
                    <mxGeometry relative="1" as="geometry"/>
                </mxCell>
                <mxCell id="t0RmRPI1sTO2w_LkU9PK-2" value="Input Parameter&lt;br&gt;( first, second,len )" style="shape=parallelogram;perimeter=parallelogramPerimeter;whiteSpace=wrap;html=1;fixedSize=1;" parent="1" vertex="1">
                    <mxGeometry x="295" y="160" width="130" height="60" as="geometry"/>
                </mxCell>
                <mxCell id="t0RmRPI1sTO2w_LkU9PK-10" value="" style="edgeStyle=orthogonalEdgeStyle;rounded=0;orthogonalLoop=1;jettySize=auto;html=1;" parent="1" source="t0RmRPI1sTO2w_LkU9PK-4" target="t0RmRPI1sTO2w_LkU9PK-9" edge="1">
                    <mxGeometry relative="1" as="geometry"/>
                </mxCell>
                <mxCell id="t0RmRPI1sTO2w_LkU9PK-21" value="yes" style="edgeLabel;html=1;align=center;verticalAlign=middle;resizable=0;points=[];" parent="t0RmRPI1sTO2w_LkU9PK-10" vertex="1" connectable="0">
                    <mxGeometry x="0.05" y="2" relative="1" as="geometry">
                        <mxPoint as="offset"/>
                    </mxGeometry>
                </mxCell>
                <mxCell id="t0RmRPI1sTO2w_LkU9PK-4" value="i &amp;lt; len" style="rhombus;whiteSpace=wrap;html=1;" parent="1" vertex="1">
                    <mxGeometry x="305" y="366" width="110" height="103" as="geometry"/>
                </mxCell>
                <mxCell id="t0RmRPI1sTO2w_LkU9PK-7" value="" style="edgeStyle=orthogonalEdgeStyle;rounded=0;orthogonalLoop=1;jettySize=auto;html=1;" parent="1" source="t0RmRPI1sTO2w_LkU9PK-5" target="t0RmRPI1sTO2w_LkU9PK-4" edge="1">
                    <mxGeometry relative="1" as="geometry"/>
                </mxCell>
                <mxCell id="t0RmRPI1sTO2w_LkU9PK-5" value="diff = second - first&lt;br&gt;res = [ ]&lt;br&gt;i = 0" style="rounded=0;whiteSpace=wrap;html=1;" parent="1" vertex="1">
                    <mxGeometry x="300" y="270" width="120" height="60" as="geometry"/>
                </mxCell>
                <mxCell id="t0RmRPI1sTO2w_LkU9PK-12" value="" style="edgeStyle=orthogonalEdgeStyle;rounded=0;orthogonalLoop=1;jettySize=auto;html=1;" parent="1" source="t0RmRPI1sTO2w_LkU9PK-9" target="t0RmRPI1sTO2w_LkU9PK-11" edge="1">
                    <mxGeometry relative="1" as="geometry"/>
                </mxCell>
                <mxCell id="t0RmRPI1sTO2w_LkU9PK-15" value="yes" style="edgeLabel;html=1;align=center;verticalAlign=middle;resizable=0;points=[];" parent="t0RmRPI1sTO2w_LkU9PK-12" vertex="1" connectable="0">
                    <mxGeometry x="-0.0462" y="1" relative="1" as="geometry">
                        <mxPoint y="1" as="offset"/>
                    </mxGeometry>
                </mxCell>
                <mxCell id="t0RmRPI1sTO2w_LkU9PK-14" value="" style="edgeStyle=orthogonalEdgeStyle;rounded=0;orthogonalLoop=1;jettySize=auto;html=1;" parent="1" source="t0RmRPI1sTO2w_LkU9PK-9" target="t0RmRPI1sTO2w_LkU9PK-13" edge="1">
                    <mxGeometry relative="1" as="geometry"/>
                </mxCell>
                <mxCell id="t0RmRPI1sTO2w_LkU9PK-16" value="no" style="edgeLabel;html=1;align=center;verticalAlign=middle;resizable=0;points=[];" parent="t0RmRPI1sTO2w_LkU9PK-14" vertex="1" connectable="0">
                    <mxGeometry x="-0.1915" relative="1" as="geometry">
                        <mxPoint as="offset"/>
                    </mxGeometry>
                </mxCell>
                <mxCell id="t0RmRPI1sTO2w_LkU9PK-9" value="i = 0" style="rhombus;whiteSpace=wrap;html=1;" parent="1" vertex="1">
                    <mxGeometry x="305" y="520" width="110" height="103" as="geometry"/>
                </mxCell>
                <mxCell id="t0RmRPI1sTO2w_LkU9PK-11" value="res[ i ] = first" style="rounded=0;whiteSpace=wrap;html=1;" parent="1" vertex="1">
                    <mxGeometry x="480" y="541.5" width="120" height="60" as="geometry"/>
                </mxCell>
                <mxCell id="t0RmRPI1sTO2w_LkU9PK-18" value="" style="edgeStyle=orthogonalEdgeStyle;rounded=0;orthogonalLoop=1;jettySize=auto;html=1;" parent="1" source="t0RmRPI1sTO2w_LkU9PK-13" target="t0RmRPI1sTO2w_LkU9PK-17" edge="1">
                    <mxGeometry relative="1" as="geometry"/>
                </mxCell>
                <mxCell id="t0RmRPI1sTO2w_LkU9PK-13" value="res[ i ] = &lt;br&gt;&lt;span&gt;res[ i - 1 ] + diff&lt;/span&gt;" style="rounded=0;whiteSpace=wrap;html=1;" parent="1" vertex="1">
                    <mxGeometry x="300" y="670" width="120" height="60" as="geometry"/>
                </mxCell>
                <mxCell id="t0RmRPI1sTO2w_LkU9PK-17" value="i = i + 1" style="rounded=0;whiteSpace=wrap;html=1;" parent="1" vertex="1">
                    <mxGeometry x="300" y="770" width="120" height="60" as="geometry"/>
                </mxCell>
                <mxCell id="t0RmRPI1sTO2w_LkU9PK-19" value="" style="endArrow=classic;html=1;rounded=0;exitX=0.5;exitY=1;exitDx=0;exitDy=0;entryX=1;entryY=0.5;entryDx=0;entryDy=0;" parent="1" source="t0RmRPI1sTO2w_LkU9PK-11" target="t0RmRPI1sTO2w_LkU9PK-17" edge="1">
                    <mxGeometry width="50" height="50" relative="1" as="geometry">
                        <mxPoint x="540" y="710" as="sourcePoint"/>
                        <mxPoint x="590" y="660" as="targetPoint"/>
                        <Array as="points">
                            <mxPoint x="540" y="800"/>
                        </Array>
                    </mxGeometry>
                </mxCell>
                <mxCell id="t0RmRPI1sTO2w_LkU9PK-20" value="" style="endArrow=classic;html=1;rounded=0;exitX=0;exitY=0.5;exitDx=0;exitDy=0;entryX=0;entryY=0.5;entryDx=0;entryDy=0;" parent="1" source="t0RmRPI1sTO2w_LkU9PK-17" target="t0RmRPI1sTO2w_LkU9PK-4" edge="1">
                    <mxGeometry width="50" height="50" relative="1" as="geometry">
                        <mxPoint x="400" y="720" as="sourcePoint"/>
                        <mxPoint x="290" y="450" as="targetPoint"/>
                        <Array as="points">
                            <mxPoint x="220" y="800"/>
                            <mxPoint x="220" y="418"/>
                        </Array>
                    </mxGeometry>
                </mxCell>
                <mxCell id="t0RmRPI1sTO2w_LkU9PK-22" value="return res" style="rounded=0;whiteSpace=wrap;html=1;" parent="1" vertex="1">
                    <mxGeometry x="620" y="670" width="120" height="60" as="geometry"/>
                </mxCell>
                <mxCell id="t0RmRPI1sTO2w_LkU9PK-24" value="" style="endArrow=classic;html=1;rounded=0;entryX=0.5;entryY=0;entryDx=0;entryDy=0;exitX=1;exitY=0.5;exitDx=0;exitDy=0;" parent="1" source="t0RmRPI1sTO2w_LkU9PK-4" target="t0RmRPI1sTO2w_LkU9PK-22" edge="1">
                    <mxGeometry width="50" height="50" relative="1" as="geometry">
                        <mxPoint x="420" y="430" as="sourcePoint"/>
                        <mxPoint x="470" y="403.5" as="targetPoint"/>
                        <Array as="points">
                            <mxPoint x="680" y="418"/>
                        </Array>
                    </mxGeometry>
                </mxCell>
                <mxCell id="t0RmRPI1sTO2w_LkU9PK-27" value="no" style="edgeLabel;html=1;align=center;verticalAlign=middle;resizable=0;points=[];" parent="t0RmRPI1sTO2w_LkU9PK-24" vertex="1" connectable="0">
                    <mxGeometry x="-0.5138" y="3" relative="1" as="geometry">
                        <mxPoint as="offset"/>
                    </mxGeometry>
                </mxCell>
                <mxCell id="t0RmRPI1sTO2w_LkU9PK-25" value="STOP" style="ellipse;whiteSpace=wrap;html=1;aspect=fixed;" parent="1" vertex="1">
                    <mxGeometry x="320" y="890" width="80" height="80" as="geometry"/>
                </mxCell>
                <mxCell id="t0RmRPI1sTO2w_LkU9PK-26" value="" style="endArrow=classic;html=1;rounded=0;exitX=0.5;exitY=1;exitDx=0;exitDy=0;entryX=1;entryY=0.5;entryDx=0;entryDy=0;" parent="1" target="t0RmRPI1sTO2w_LkU9PK-25" edge="1">
                    <mxGeometry width="50" height="50" relative="1" as="geometry">
                        <mxPoint x="680" y="730" as="sourcePoint"/>
                        <mxPoint x="560" y="928.5" as="targetPoint"/>
                        <Array as="points">
                            <mxPoint x="680" y="928.5"/>
                        </Array>
                    </mxGeometry>
                </mxCell>
            </root>
        </mxGraphModel>
    </diagram>
    <diagram name="4" id="j6ISyykJ6RyhAnIsuCc3">
        <mxGraphModel dx="642" dy="343" grid="1" gridSize="10" guides="1" tooltips="1" connect="1" arrows="1" fold="1" page="1" pageScale="1" pageWidth="850" pageHeight="1100" math="0" shadow="0">
            <root>
                <mxCell id="9bG2Fjb6FRejIstXrDvO-0"/>
                <mxCell id="9bG2Fjb6FRejIstXrDvO-1" parent="9bG2Fjb6FRejIstXrDvO-0"/>
                <mxCell id="9bG2Fjb6FRejIstXrDvO-2" value="" style="edgeStyle=orthogonalEdgeStyle;rounded=0;orthogonalLoop=1;jettySize=auto;html=1;" parent="9bG2Fjb6FRejIstXrDvO-1" source="9bG2Fjb6FRejIstXrDvO-3" target="9bG2Fjb6FRejIstXrDvO-5" edge="1">
                    <mxGeometry relative="1" as="geometry"/>
                </mxCell>
                <mxCell id="9bG2Fjb6FRejIstXrDvO-3" value="START" style="ellipse;whiteSpace=wrap;html=1;aspect=fixed;" parent="9bG2Fjb6FRejIstXrDvO-1" vertex="1">
                    <mxGeometry x="320" y="30" width="80" height="80" as="geometry"/>
                </mxCell>
                <mxCell id="9bG2Fjb6FRejIstXrDvO-4" value="" style="edgeStyle=orthogonalEdgeStyle;rounded=0;orthogonalLoop=1;jettySize=auto;html=1;" parent="9bG2Fjb6FRejIstXrDvO-1" source="9bG2Fjb6FRejIstXrDvO-5" target="9bG2Fjb6FRejIstXrDvO-10" edge="1">
                    <mxGeometry relative="1" as="geometry"/>
                </mxCell>
                <mxCell id="9bG2Fjb6FRejIstXrDvO-5" value="Input Parameter&lt;br&gt;( data, action )" style="shape=parallelogram;perimeter=parallelogramPerimeter;whiteSpace=wrap;html=1;fixedSize=1;" parent="9bG2Fjb6FRejIstXrDvO-1" vertex="1">
                    <mxGeometry x="295" y="160" width="130" height="60" as="geometry"/>
                </mxCell>
                <mxCell id="epBJm9wILKIjLhjb-nJ5-1" value="" style="edgeStyle=orthogonalEdgeStyle;rounded=0;orthogonalLoop=1;jettySize=auto;html=1;" parent="9bG2Fjb6FRejIstXrDvO-1" source="9bG2Fjb6FRejIstXrDvO-8" target="epBJm9wILKIjLhjb-nJ5-0" edge="1">
                    <mxGeometry relative="1" as="geometry"/>
                </mxCell>
                <mxCell id="epBJm9wILKIjLhjb-nJ5-4" value="yes" style="edgeLabel;html=1;align=center;verticalAlign=middle;resizable=0;points=[];" parent="epBJm9wILKIjLhjb-nJ5-1" vertex="1" connectable="0">
                    <mxGeometry x="-0.2157" y="1" relative="1" as="geometry">
                        <mxPoint as="offset"/>
                    </mxGeometry>
                </mxCell>
                <mxCell id="9bG2Fjb6FRejIstXrDvO-8" value="i &amp;lt; len" style="rhombus;whiteSpace=wrap;html=1;" parent="9bG2Fjb6FRejIstXrDvO-1" vertex="1">
                    <mxGeometry x="305" y="366" width="110" height="103" as="geometry"/>
                </mxCell>
                <mxCell id="9bG2Fjb6FRejIstXrDvO-9" value="" style="edgeStyle=orthogonalEdgeStyle;rounded=0;orthogonalLoop=1;jettySize=auto;html=1;" parent="9bG2Fjb6FRejIstXrDvO-1" source="9bG2Fjb6FRejIstXrDvO-10" target="9bG2Fjb6FRejIstXrDvO-8" edge="1">
                    <mxGeometry relative="1" as="geometry"/>
                </mxCell>
                <mxCell id="9bG2Fjb6FRejIstXrDvO-10" value="len = len of data&lt;br&gt;i = 0" style="rounded=0;whiteSpace=wrap;html=1;" parent="9bG2Fjb6FRejIstXrDvO-1" vertex="1">
                    <mxGeometry x="300" y="270" width="120" height="60" as="geometry"/>
                </mxCell>
                <mxCell id="epBJm9wILKIjLhjb-nJ5-3" value="" style="edgeStyle=orthogonalEdgeStyle;rounded=0;orthogonalLoop=1;jettySize=auto;html=1;" parent="9bG2Fjb6FRejIstXrDvO-1" source="epBJm9wILKIjLhjb-nJ5-0" target="epBJm9wILKIjLhjb-nJ5-2" edge="1">
                    <mxGeometry relative="1" as="geometry"/>
                </mxCell>
                <mxCell id="epBJm9wILKIjLhjb-nJ5-0" value="temp = data[ i ]&lt;br&gt;index = i&lt;br&gt;j = i + 1" style="rounded=0;whiteSpace=wrap;html=1;" parent="9bG2Fjb6FRejIstXrDvO-1" vertex="1">
                    <mxGeometry x="300" y="520" width="120" height="60" as="geometry"/>
                </mxCell>
                <mxCell id="epBJm9wILKIjLhjb-nJ5-8" value="" style="edgeStyle=orthogonalEdgeStyle;rounded=0;orthogonalLoop=1;jettySize=auto;html=1;" parent="9bG2Fjb6FRejIstXrDvO-1" source="epBJm9wILKIjLhjb-nJ5-2" target="epBJm9wILKIjLhjb-nJ5-5" edge="1">
                    <mxGeometry relative="1" as="geometry"/>
                </mxCell>
                <mxCell id="epBJm9wILKIjLhjb-nJ5-11" value="yes" style="edgeLabel;html=1;align=center;verticalAlign=middle;resizable=0;points=[];" parent="epBJm9wILKIjLhjb-nJ5-8" vertex="1" connectable="0">
                    <mxGeometry x="0.0529" y="-1" relative="1" as="geometry">
                        <mxPoint as="offset"/>
                    </mxGeometry>
                </mxCell>
                <mxCell id="epBJm9wILKIjLhjb-nJ5-38" value="" style="edgeStyle=orthogonalEdgeStyle;rounded=0;orthogonalLoop=1;jettySize=auto;html=1;" parent="9bG2Fjb6FRejIstXrDvO-1" source="epBJm9wILKIjLhjb-nJ5-2" target="epBJm9wILKIjLhjb-nJ5-37" edge="1">
                    <mxGeometry relative="1" as="geometry"/>
                </mxCell>
                <mxCell id="epBJm9wILKIjLhjb-nJ5-42" value="no" style="edgeLabel;html=1;align=center;verticalAlign=middle;resizable=0;points=[];" parent="epBJm9wILKIjLhjb-nJ5-38" vertex="1" connectable="0">
                    <mxGeometry x="-0.0165" y="-1" relative="1" as="geometry">
                        <mxPoint as="offset"/>
                    </mxGeometry>
                </mxCell>
                <mxCell id="epBJm9wILKIjLhjb-nJ5-2" value="j &amp;lt; len" style="rhombus;whiteSpace=wrap;html=1;" parent="9bG2Fjb6FRejIstXrDvO-1" vertex="1">
                    <mxGeometry x="305" y="627" width="110" height="103" as="geometry"/>
                </mxCell>
                <mxCell id="epBJm9wILKIjLhjb-nJ5-9" value="" style="edgeStyle=orthogonalEdgeStyle;rounded=0;orthogonalLoop=1;jettySize=auto;html=1;" parent="9bG2Fjb6FRejIstXrDvO-1" source="epBJm9wILKIjLhjb-nJ5-5" target="epBJm9wILKIjLhjb-nJ5-6" edge="1">
                    <mxGeometry relative="1" as="geometry"/>
                </mxCell>
                <mxCell id="epBJm9wILKIjLhjb-nJ5-12" value="no" style="edgeLabel;html=1;align=center;verticalAlign=middle;resizable=0;points=[];" parent="epBJm9wILKIjLhjb-nJ5-9" vertex="1" connectable="0">
                    <mxGeometry x="-0.0761" y="1" relative="1" as="geometry">
                        <mxPoint as="offset"/>
                    </mxGeometry>
                </mxCell>
                <mxCell id="epBJm9wILKIjLhjb-nJ5-15" value="" style="edgeStyle=orthogonalEdgeStyle;rounded=0;orthogonalLoop=1;jettySize=auto;html=1;entryX=0;entryY=0.5;entryDx=0;entryDy=0;" parent="9bG2Fjb6FRejIstXrDvO-1" source="epBJm9wILKIjLhjb-nJ5-5" target="epBJm9wILKIjLhjb-nJ5-16" edge="1">
                    <mxGeometry relative="1" as="geometry">
                        <mxPoint x="490" y="827.5" as="targetPoint"/>
                    </mxGeometry>
                </mxCell>
                <mxCell id="epBJm9wILKIjLhjb-nJ5-17" value="yes" style="edgeLabel;html=1;align=center;verticalAlign=middle;resizable=0;points=[];" parent="epBJm9wILKIjLhjb-nJ5-15" vertex="1" connectable="0">
                    <mxGeometry x="-0.171" y="-1" relative="1" as="geometry">
                        <mxPoint as="offset"/>
                    </mxGeometry>
                </mxCell>
                <mxCell id="epBJm9wILKIjLhjb-nJ5-5" value="action = asc" style="rhombus;whiteSpace=wrap;html=1;" parent="9bG2Fjb6FRejIstXrDvO-1" vertex="1">
                    <mxGeometry x="305" y="776" width="110" height="103" as="geometry"/>
                </mxCell>
                <mxCell id="epBJm9wILKIjLhjb-nJ5-10" value="" style="edgeStyle=orthogonalEdgeStyle;rounded=0;orthogonalLoop=1;jettySize=auto;html=1;" parent="9bG2Fjb6FRejIstXrDvO-1" source="epBJm9wILKIjLhjb-nJ5-6" target="epBJm9wILKIjLhjb-nJ5-7" edge="1">
                    <mxGeometry relative="1" as="geometry"/>
                </mxCell>
                <mxCell id="epBJm9wILKIjLhjb-nJ5-13" value="no" style="edgeLabel;html=1;align=center;verticalAlign=middle;resizable=0;points=[];" parent="epBJm9wILKIjLhjb-nJ5-10" vertex="1" connectable="0">
                    <mxGeometry x="-0.0996" y="3" relative="1" as="geometry">
                        <mxPoint as="offset"/>
                    </mxGeometry>
                </mxCell>
                <mxCell id="epBJm9wILKIjLhjb-nJ5-22" value="" style="edgeStyle=orthogonalEdgeStyle;rounded=0;orthogonalLoop=1;jettySize=auto;html=1;entryX=0;entryY=0.5;entryDx=0;entryDy=0;" parent="9bG2Fjb6FRejIstXrDvO-1" source="epBJm9wILKIjLhjb-nJ5-6" target="epBJm9wILKIjLhjb-nJ5-23" edge="1">
                    <mxGeometry relative="1" as="geometry">
                        <mxPoint x="510" y="978.4999999999998" as="targetPoint"/>
                    </mxGeometry>
                </mxCell>
                <mxCell id="epBJm9wILKIjLhjb-nJ5-43" value="yes" style="edgeLabel;html=1;align=center;verticalAlign=middle;resizable=0;points=[];" parent="epBJm9wILKIjLhjb-nJ5-22" vertex="1" connectable="0">
                    <mxGeometry x="-0.1509" relative="1" as="geometry">
                        <mxPoint as="offset"/>
                    </mxGeometry>
                </mxCell>
                <mxCell id="epBJm9wILKIjLhjb-nJ5-6" value="action = desc" style="rhombus;whiteSpace=wrap;html=1;" parent="9bG2Fjb6FRejIstXrDvO-1" vertex="1">
                    <mxGeometry x="305" y="927" width="110" height="103" as="geometry"/>
                </mxCell>
                <mxCell id="epBJm9wILKIjLhjb-nJ5-47" value="yes" style="edgeStyle=orthogonalEdgeStyle;rounded=0;orthogonalLoop=1;jettySize=auto;html=1;" parent="9bG2Fjb6FRejIstXrDvO-1" source="epBJm9wILKIjLhjb-nJ5-7" target="epBJm9wILKIjLhjb-nJ5-46" edge="1">
                    <mxGeometry relative="1" as="geometry"/>
                </mxCell>
                <mxCell id="epBJm9wILKIjLhjb-nJ5-7" value="action != asc or&lt;br&gt;action != desc" style="rhombus;whiteSpace=wrap;html=1;" parent="9bG2Fjb6FRejIstXrDvO-1" vertex="1">
                    <mxGeometry x="305" y="1078" width="110" height="103" as="geometry"/>
                </mxCell>
                <mxCell id="epBJm9wILKIjLhjb-nJ5-19" value="" style="edgeStyle=orthogonalEdgeStyle;rounded=0;orthogonalLoop=1;jettySize=auto;html=1;" parent="9bG2Fjb6FRejIstXrDvO-1" source="epBJm9wILKIjLhjb-nJ5-16" target="epBJm9wILKIjLhjb-nJ5-18" edge="1">
                    <mxGeometry relative="1" as="geometry"/>
                </mxCell>
                <mxCell id="epBJm9wILKIjLhjb-nJ5-20" value="yes" style="edgeLabel;html=1;align=center;verticalAlign=middle;resizable=0;points=[];" parent="epBJm9wILKIjLhjb-nJ5-19" vertex="1" connectable="0">
                    <mxGeometry x="-0.1188" y="1" relative="1" as="geometry">
                        <mxPoint as="offset"/>
                    </mxGeometry>
                </mxCell>
                <mxCell id="epBJm9wILKIjLhjb-nJ5-16" value="data[ i ] &amp;gt; data[ j ]" style="rhombus;whiteSpace=wrap;html=1;" parent="9bG2Fjb6FRejIstXrDvO-1" vertex="1">
                    <mxGeometry x="509" y="776" width="110" height="103" as="geometry"/>
                </mxCell>
                <mxCell id="epBJm9wILKIjLhjb-nJ5-18" value="data[ i ] = data[ j ]&lt;br&gt;index = j" style="whiteSpace=wrap;html=1;" parent="9bG2Fjb6FRejIstXrDvO-1" vertex="1">
                    <mxGeometry x="694" y="797.5" width="120" height="60" as="geometry"/>
                </mxCell>
                <mxCell id="epBJm9wILKIjLhjb-nJ5-25" value="" style="edgeStyle=orthogonalEdgeStyle;rounded=0;orthogonalLoop=1;jettySize=auto;html=1;" parent="9bG2Fjb6FRejIstXrDvO-1" source="epBJm9wILKIjLhjb-nJ5-23" target="epBJm9wILKIjLhjb-nJ5-24" edge="1">
                    <mxGeometry relative="1" as="geometry"/>
                </mxCell>
                <mxCell id="epBJm9wILKIjLhjb-nJ5-44" value="yes" style="edgeLabel;html=1;align=center;verticalAlign=middle;resizable=0;points=[];" parent="epBJm9wILKIjLhjb-nJ5-25" vertex="1" connectable="0">
                    <mxGeometry x="-0.1467" relative="1" as="geometry">
                        <mxPoint as="offset"/>
                    </mxGeometry>
                </mxCell>
                <mxCell id="epBJm9wILKIjLhjb-nJ5-23" value="data[ i ] &amp;lt; data[ j ]" style="rhombus;whiteSpace=wrap;html=1;" parent="9bG2Fjb6FRejIstXrDvO-1" vertex="1">
                    <mxGeometry x="510" y="927" width="110" height="103" as="geometry"/>
                </mxCell>
                <mxCell id="epBJm9wILKIjLhjb-nJ5-24" value="&lt;span&gt;data[ i ] = data[ j ]&lt;/span&gt;&lt;br&gt;&lt;span&gt;index = j&lt;/span&gt;" style="whiteSpace=wrap;html=1;" parent="9bG2Fjb6FRejIstXrDvO-1" vertex="1">
                    <mxGeometry x="695" y="948.5" width="120" height="60" as="geometry"/>
                </mxCell>
                <mxCell id="epBJm9wILKIjLhjb-nJ5-29" value="j = j + 1" style="whiteSpace=wrap;html=1;" parent="9bG2Fjb6FRejIstXrDvO-1" vertex="1">
                    <mxGeometry x="694" y="648.5" width="120" height="60" as="geometry"/>
                </mxCell>
                <mxCell id="epBJm9wILKIjLhjb-nJ5-30" value="" style="endArrow=classic;html=1;rounded=0;exitX=0;exitY=0.5;exitDx=0;exitDy=0;entryX=1;entryY=0.5;entryDx=0;entryDy=0;" parent="9bG2Fjb6FRejIstXrDvO-1" source="epBJm9wILKIjLhjb-nJ5-29" target="epBJm9wILKIjLhjb-nJ5-2" edge="1">
                    <mxGeometry width="50" height="50" relative="1" as="geometry">
                        <mxPoint x="760" y="780" as="sourcePoint"/>
                        <mxPoint x="810" y="730" as="targetPoint"/>
                    </mxGeometry>
                </mxCell>
                <mxCell id="epBJm9wILKIjLhjb-nJ5-31" value="" style="endArrow=classic;html=1;rounded=0;exitX=1;exitY=0.5;exitDx=0;exitDy=0;" parent="9bG2Fjb6FRejIstXrDvO-1" source="epBJm9wILKIjLhjb-nJ5-24" target="epBJm9wILKIjLhjb-nJ5-29" edge="1">
                    <mxGeometry width="50" height="50" relative="1" as="geometry">
                        <mxPoint x="870" y="850" as="sourcePoint"/>
                        <mxPoint x="815" y="680" as="targetPoint"/>
                        <Array as="points">
                            <mxPoint x="880" y="979"/>
                            <mxPoint x="880" y="680"/>
                        </Array>
                    </mxGeometry>
                </mxCell>
                <mxCell id="epBJm9wILKIjLhjb-nJ5-40" value="" style="edgeStyle=orthogonalEdgeStyle;rounded=0;orthogonalLoop=1;jettySize=auto;html=1;" parent="9bG2Fjb6FRejIstXrDvO-1" source="epBJm9wILKIjLhjb-nJ5-37" target="epBJm9wILKIjLhjb-nJ5-39" edge="1">
                    <mxGeometry relative="1" as="geometry"/>
                </mxCell>
                <mxCell id="epBJm9wILKIjLhjb-nJ5-37" value="&lt;span&gt;data[ i ] = data[ index ]&lt;/span&gt;&lt;br&gt;&lt;span&gt;data[index] = temp&lt;/span&gt;" style="whiteSpace=wrap;html=1;" parent="9bG2Fjb6FRejIstXrDvO-1" vertex="1">
                    <mxGeometry x="74" y="648.5" width="130" height="60" as="geometry"/>
                </mxCell>
                <mxCell id="epBJm9wILKIjLhjb-nJ5-39" value="&lt;span&gt;i = i + 1&lt;/span&gt;" style="whiteSpace=wrap;html=1;" parent="9bG2Fjb6FRejIstXrDvO-1" vertex="1">
                    <mxGeometry x="79" y="387.5" width="120" height="60" as="geometry"/>
                </mxCell>
                <mxCell id="epBJm9wILKIjLhjb-nJ5-41" value="" style="endArrow=classic;html=1;rounded=0;exitX=1;exitY=0.5;exitDx=0;exitDy=0;" parent="9bG2Fjb6FRejIstXrDvO-1" source="epBJm9wILKIjLhjb-nJ5-39" target="9bG2Fjb6FRejIstXrDvO-8" edge="1">
                    <mxGeometry width="50" height="50" relative="1" as="geometry">
                        <mxPoint x="370" y="580" as="sourcePoint"/>
                        <mxPoint x="420" y="530" as="targetPoint"/>
                    </mxGeometry>
                </mxCell>
                <mxCell id="epBJm9wILKIjLhjb-nJ5-45" value="" style="endArrow=none;html=1;rounded=0;exitX=1;exitY=0.5;exitDx=0;exitDy=0;" parent="9bG2Fjb6FRejIstXrDvO-1" source="epBJm9wILKIjLhjb-nJ5-18" edge="1">
                    <mxGeometry width="50" height="50" relative="1" as="geometry">
                        <mxPoint x="610" y="780" as="sourcePoint"/>
                        <mxPoint x="880" y="828" as="targetPoint"/>
                    </mxGeometry>
                </mxCell>
                <mxCell id="epBJm9wILKIjLhjb-nJ5-46" value="return nil , err invalid parameter" style="whiteSpace=wrap;html=1;" parent="9bG2Fjb6FRejIstXrDvO-1" vertex="1">
                    <mxGeometry x="499" y="1100" width="120" height="60" as="geometry"/>
                </mxCell>
                <mxCell id="epBJm9wILKIjLhjb-nJ5-48" value="return data , nil" style="whiteSpace=wrap;html=1;" parent="9bG2Fjb6FRejIstXrDvO-1" vertex="1">
                    <mxGeometry x="900" y="1100" width="120" height="60" as="geometry"/>
                </mxCell>
                <mxCell id="epBJm9wILKIjLhjb-nJ5-49" value="STOP" style="ellipse;whiteSpace=wrap;html=1;aspect=fixed;" parent="9bG2Fjb6FRejIstXrDvO-1" vertex="1">
                    <mxGeometry x="320" y="1230" width="80" height="80" as="geometry"/>
                </mxCell>
                <mxCell id="epBJm9wILKIjLhjb-nJ5-51" value="" style="endArrow=classic;html=1;rounded=0;entryX=1;entryY=0.5;entryDx=0;entryDy=0;exitX=0.5;exitY=1;exitDx=0;exitDy=0;" parent="9bG2Fjb6FRejIstXrDvO-1" source="epBJm9wILKIjLhjb-nJ5-46" target="epBJm9wILKIjLhjb-nJ5-49" edge="1">
                    <mxGeometry width="50" height="50" relative="1" as="geometry">
                        <mxPoint x="430" y="1220" as="sourcePoint"/>
                        <mxPoint x="480" y="1170" as="targetPoint"/>
                        <Array as="points">
                            <mxPoint x="559" y="1270"/>
                        </Array>
                    </mxGeometry>
                </mxCell>
                <mxCell id="epBJm9wILKIjLhjb-nJ5-52" value="" style="endArrow=classic;html=1;rounded=0;entryX=1;entryY=0.5;entryDx=0;entryDy=0;exitX=0.5;exitY=1;exitDx=0;exitDy=0;" parent="9bG2Fjb6FRejIstXrDvO-1" source="epBJm9wILKIjLhjb-nJ5-48" target="epBJm9wILKIjLhjb-nJ5-49" edge="1">
                    <mxGeometry width="50" height="50" relative="1" as="geometry">
                        <mxPoint x="960" y="1180" as="sourcePoint"/>
                        <mxPoint x="410" y="1279.9999999999998" as="targetPoint"/>
                        <Array as="points">
                            <mxPoint x="960" y="1270"/>
                        </Array>
                    </mxGeometry>
                </mxCell>
                <mxCell id="epBJm9wILKIjLhjb-nJ5-53" value="" style="endArrow=classic;html=1;rounded=0;exitX=1;exitY=0.5;exitDx=0;exitDy=0;entryX=0.5;entryY=0;entryDx=0;entryDy=0;" parent="9bG2Fjb6FRejIstXrDvO-1" source="9bG2Fjb6FRejIstXrDvO-8" target="epBJm9wILKIjLhjb-nJ5-48" edge="1">
                    <mxGeometry width="50" height="50" relative="1" as="geometry">
                        <mxPoint x="620" y="750" as="sourcePoint"/>
                        <mxPoint x="670" y="700" as="targetPoint"/>
                        <Array as="points">
                            <mxPoint x="960" y="418"/>
                            <mxPoint x="960" y="1040"/>
                        </Array>
                    </mxGeometry>
                </mxCell>
                <mxCell id="epBJm9wILKIjLhjb-nJ5-54" value="no" style="edgeLabel;html=1;align=center;verticalAlign=middle;resizable=0;points=[];" parent="epBJm9wILKIjLhjb-nJ5-53" vertex="1" connectable="0">
                    <mxGeometry x="-0.6365" y="2" relative="1" as="geometry">
                        <mxPoint x="-1" as="offset"/>
                    </mxGeometry>
                </mxCell>
            </root>
        </mxGraphModel>
    </diagram>
</mxfile>